<?xml version="1.0" encoding="utf-8"?>
<svg version="1.1" id="Layer_1" xmlns="http://www.w3.org/2000/svg" x="0px" y="0px" viewBox="0 0 700 700" style="enable-background:new 0 0 700 700;" xml:space="preserve">
<g>
	<path fill="#6B6A6A" d="M544.9,680.8c0.2-0.4,0.4-0.8,0.5-1.2c0.2-0.4,0.3-0.8,0.4-1.3c0.1-0.4,0.2-0.8,0.3-1.3
		c0.1-0.4,0.1-0.9,0.2-1.3c0-0.4,0-0.9,0-1.3c0-0.4,0-0.9-0.1-1.3c-0.1-0.4-0.1-0.8-0.2-1.2c-0.1-0.5-0.2-1-0.4-1.4
		c-0.1-0.2-0.1-0.4-0.2-0.6l-176.5-449c26.3-8.1,45.5-32.6,45.5-61.5c0-35.5-28.9-64.3-64.3-64.3s-64.3,28.9-64.3,64.3
		c0,28.9,19.2,53.4,45.5,61.5l-176.5,449c-0.1,0.2-0.1,0.4-0.2,0.6c-0.2,0.5-0.3,0.9-0.4,1.4c-0.1,0.4-0.2,0.8-0.2,1.3
		c-0.1,0.4-0.1,0.9-0.1,1.3c0,0.4,0,0.9,0,1.3c0,0.4,0.1,0.9,0.2,1.3s0.2,0.8,0.3,1.3c0.1,0.4,0.3,0.9,0.4,1.3
		c0.2,0.4,0.3,0.8,0.5,1.2c0.2,0.4,0.4,0.8,0.6,1.1c0.2,0.4,0.5,0.8,0.8,1.2c0.1,0.2,0.2,0.4,0.4,0.5c0.1,0.1,0.3,0.2,0.4,0.4
		c0.4,0.4,0.8,0.8,1.3,1.2c0.3,0.3,0.6,0.5,0.9,0.7c0.4,0.3,0.9,0.6,1.4,0.8c0.4,0.2,0.8,0.4,1.2,0.6c0.1,0,0.2,0.1,0.3,0.2
		c0.5,0.2,0.9,0.3,1.4,0.4c0.3,0.1,0.6,0.2,0.9,0.3c0.9,0.2,1.8,0.3,2.7,0.3c0,0,0.1,0,0.1,0c1.2,0,2.4-0.2,3.5-0.5
		c0.2-0.1,0.4-0.1,0.6-0.2c1.1-0.3,2.1-0.8,3.1-1.5c0.2-0.1,0.4-0.3,0.6-0.4c0.3-0.2,0.6-0.4,0.9-0.6L350,537.8l173.9,147.5
		c0.3,0.2,0.6,0.4,0.9,0.6c0.2,0.1,0.4,0.3,0.6,0.4c1,0.6,2,1.1,3.1,1.5c0.2,0.1,0.4,0.1,0.6,0.2c1.2,0.3,2.3,0.5,3.5,0.5
		c0,0,0.1,0,0.1,0c0.9,0,1.8-0.1,2.7-0.3c0.3-0.1,0.6-0.2,0.9-0.3c0.5-0.1,0.9-0.2,1.4-0.4c0.1,0,0.2-0.1,0.3-0.2
		c0.4-0.2,0.8-0.4,1.2-0.6c0.5-0.3,0.9-0.5,1.4-0.8c0.3-0.2,0.6-0.5,0.9-0.7c0.5-0.4,0.9-0.8,1.3-1.2c0.1-0.1,0.3-0.2,0.4-0.4
		c0.1-0.2,0.2-0.4,0.4-0.5c0.3-0.4,0.6-0.8,0.8-1.2C544.5,681.6,544.7,681.2,544.9,680.8L544.9,680.8z M425.1,438.4L350,502.1
		l-75.1-63.7L350,247.3L425.1,438.4z M312.9,159.4c0-20.5,16.6-37.1,37.1-37.1c20.5,0,37.1,16.6,37.1,37.1s-16.6,37.1-37.1,37.1
		C329.5,196.5,312.9,179.8,312.9,159.4z M199.8,629.5l64.6-164.3l64.6,54.8L199.8,629.5z M435.6,465.2l64.6,164.3L371,519.9
		L435.6,465.2z"/>
	<path fill="#6B6A6A" d="M237.7,215.6c3.1,0,6.3-1.1,8.8-3.3c5.7-4.9,6.4-13.5,1.5-19.2c-16.7-19.5-16.7-47.9,0-67.5
		c4.9-5.7,4.2-14.3-1.5-19.2c-5.7-4.9-14.3-4.2-19.2,1.5c-25.4,29.8-25.4,73,0,102.8C230.1,214,233.9,215.6,237.7,215.6L237.7,215.6
		z"/>
	<path fill="#6B6A6A" d="M171,267.6c2.7,3.2,6.5,4.8,10.4,4.8c3.1,0,6.3-1.1,8.8-3.3c5.7-4.9,6.4-13.5,1.5-19.2
		c-44.8-52.4-44.8-128.6,0-181c4.9-5.7,4.2-14.3-1.5-19.2c-5.7-4.9-14.3-4.2-19.2,1.5C117.4,113.9,117.4,204.9,171,267.6L171,267.6z
		"/>
	<path fill="#6B6A6A" d="M135.3,34c4.9-5.7,4.2-14.3-1.5-19.2s-14.3-4.2-19.2,1.5c-70.8,82.9-70.8,203.3,0,286.2
		c2.7,3.2,6.5,4.8,10.4,4.8c3.1,0,6.3-1.1,8.8-3.3c5.7-4.9,6.4-13.5,1.5-19.2C73.2,212.1,73.2,106.6,135.3,34L135.3,34z"/>
	<path fill="#6B6A6A" d="M453.4,212.3c2.6,2.2,5.7,3.3,8.8,3.3c3.8,0,7.7-1.6,10.4-4.8c25.4-29.8,25.4-73,0-102.8
		c-4.9-5.7-13.5-6.4-19.2-1.5c-5.7,4.9-6.4,13.5-1.5,19.2c16.7,19.5,16.7,47.9,0,67.5C447,198.8,447.7,207.4,453.4,212.3
		L453.4,212.3z"/>
	<path fill="#6B6A6A" d="M509.8,269.1c2.6,2.2,5.7,3.3,8.8,3.3c3.8,0,7.7-1.6,10.4-4.8c53.5-62.7,53.5-153.7,0-216.4
		c-4.9-5.7-13.5-6.4-19.2-1.5c-5.7,4.9-6.4,13.5-1.5,19.2c44.8,52.4,44.8,128.6,0,181C503.4,255.6,504.1,264.2,509.8,269.1
		L509.8,269.1z"/>
	<path fill="#6B6A6A" d="M585.4,16.3c-4.9-5.7-13.5-6.4-19.2-1.5c-5.7,4.9-6.4,13.5-1.5,19.2c62.1,72.7,62.1,178.2,0,250.8
		c-4.9,5.7-4.2,14.3,1.5,19.2c2.6,2.2,5.7,3.3,8.8,3.3c3.8,0,7.7-1.6,10.4-4.8C656.3,219.6,656.3,99.2,585.4,16.3L585.4,16.3z"/>
</g>
</svg>
